<?xml version="1.0" encoding="UTF-8" standalone="no"?>
<!DOCTYPE svg PUBLIC "-//W3C//DTD SVG 1.1//EN" "http://www.w3.org/Graphics/SVG/1.1/DTD/svg11.dtd">
<svg width="100%" height="100%" viewBox="0 0 1366 1366" version="1.1" xmlns="http://www.w3.org/2000/svg" xmlns:xlink="http://www.w3.org/1999/xlink" xml:space="preserve" xmlns:serif="http://www.serif.com/" style="fill-rule:evenodd;clip-rule:evenodd;stroke-linejoin:round;stroke-miterlimit:2;">
    <g transform="matrix(1.33333,0,0,1.33333,0,0)">
        <g transform="matrix(0.194115,0.724446,-0.724446,0.194115,874.02,-115.067)">
            <path d="M684.277,0.002C1060.27,0.857 1365.3,306.413 1365.3,682.65C1365.3,749.3 1355.73,813.731 1337.88,874.669L27.423,874.669C9.599,813.823 0.029,749.493 0,682.946L0,682.354C0.183,306.229 305.143,0.856 681.023,0.002L684.277,0.002Z" style="fill:rgb(231,134,134);"/>
        </g>
        <g transform="matrix(0.194115,0.724446,-0.724446,0.194115,874.02,-115.067)">
            <path d="M1337.88,874.664C1254.86,1158.07 992.765,1365.3 682.65,1365.3C372.535,1365.3 110.44,1158.07 27.422,874.664L1337.88,874.664Z" style="fill:rgb(104,14,14);"/>
        </g>
        <g transform="matrix(0.255262,0.95265,-1.79923,0.482103,1204.64,-316.093)">
            <rect x="146.621" y="396.942" width="73.003" height="154.614" style="fill:rgb(104,14,14);"/>
        </g>
        <g transform="matrix(0.255262,0.95265,-1.79923,0.482103,1241.91,-176.999)">
            <rect x="146.621" y="396.942" width="73.003" height="154.614" style="fill:rgb(104,14,14);"/>
        </g>
        <g transform="matrix(0.255262,0.95265,-1.79923,0.482103,1279.18,-37.9064)">
            <rect x="146.621" y="396.942" width="73.003" height="154.614" style="fill:rgb(104,14,14);"/>
        </g>
        <g transform="matrix(0.255262,0.95265,-1.79923,0.482103,1316.45,101.186)">
            <rect x="146.621" y="396.942" width="73.003" height="154.614" style="fill:rgb(104,14,14);"/>
        </g>
        <g transform="matrix(0.255262,0.95265,-1.79923,0.482103,1353.72,240.278)">
            <rect x="146.621" y="396.942" width="73.003" height="154.614" style="fill:rgb(104,14,14);"/>
        </g>
        <g transform="matrix(0.255262,0.95265,-1.79923,0.482103,1391.5,381.304)">
            <rect x="146.621" y="396.942" width="73.003" height="154.614" style="fill:rgb(104,14,14);"/>
        </g>
        <g transform="matrix(0.255262,0.95265,-1.79923,0.482103,1428.78,520.401)">
            <rect x="146.621" y="396.942" width="73.003" height="154.614" style="fill:rgb(104,14,14);"/>
        </g>
    </g>
</svg>
