<?xml version="1.0" encoding="UTF-8" standalone="no"?>
<!DOCTYPE svg PUBLIC "-//W3C//DTD SVG 1.1//EN" "http://www.w3.org/Graphics/SVG/1.1/DTD/svg11.dtd">
<svg width="100%" height="100%" viewBox="0 0 1366 1366" version="1.1" xmlns="http://www.w3.org/2000/svg" xmlns:xlink="http://www.w3.org/1999/xlink" xml:space="preserve" xmlns:serif="http://www.serif.com/" style="fill-rule:evenodd;clip-rule:evenodd;stroke-linejoin:round;stroke-miterlimit:2;">
    <g transform="matrix(1.33333,0,0,1.33333,0,0)">
        <g transform="matrix(0.750002,0,0,0.750002,0,0)">
            <path d="M1346.44,355.345C1346.44,173.628 1198.91,26.097 1017.19,26.097L356.811,26.097C175.094,26.097 27.563,173.628 27.563,355.345L27.563,1013.84C27.563,1195.56 175.094,1343.09 356.811,1343.09L1017.19,1343.09C1198.91,1343.09 1346.44,1195.56 1346.44,1013.84L1346.44,355.345Z" style="fill:rgb(221,105,105);"/>
        </g>
        <g transform="matrix(0.255262,0.95265,-1.79923,0.482103,1209.89,-307.843)">
            <rect x="146.621" y="396.942" width="73.003" height="154.614" style="fill:rgb(104,14,14);"/>
        </g>
        <g transform="matrix(0.255262,0.95265,-1.79923,0.482103,1247.16,-168.749)">
            <rect x="146.621" y="396.942" width="73.003" height="154.614" style="fill:rgb(104,14,14);"/>
        </g>
        <g transform="matrix(0.255262,0.95265,-1.79923,0.482103,1284.43,-29.6564)">
            <rect x="146.621" y="396.942" width="73.003" height="154.614" style="fill:rgb(104,14,14);"/>
        </g>
        <g transform="matrix(0.255262,0.95265,-1.79923,0.482103,1321.7,109.436)">
            <rect x="146.621" y="396.942" width="73.003" height="154.614" style="fill:rgb(104,14,14);"/>
        </g>
        <g transform="matrix(0.255262,0.95265,-1.79923,0.482103,1358.97,248.528)">
            <rect x="146.621" y="396.942" width="73.003" height="154.614" style="fill:rgb(104,14,14);"/>
        </g>
        <g transform="matrix(0.255262,0.95265,-1.79923,0.482103,1396.75,389.554)">
            <rect x="146.621" y="396.942" width="73.003" height="154.614" style="fill:rgb(104,14,14);"/>
        </g>
        <g transform="matrix(0.255262,0.95265,-1.79923,0.482103,1434.03,528.651)">
            <rect x="146.621" y="396.942" width="73.003" height="154.614" style="fill:rgb(104,14,14);"/>
        </g>
    </g>
</svg>
