<?xml version="1.0" encoding="UTF-8" standalone="no"?>
<!DOCTYPE svg PUBLIC "-//W3C//DTD SVG 1.1//EN" "http://www.w3.org/Graphics/SVG/1.1/DTD/svg11.dtd">
<svg width="100%" height="100%" viewBox="0 0 1366 1366" version="1.1" xmlns="http://www.w3.org/2000/svg" xmlns:xlink="http://www.w3.org/1999/xlink" xml:space="preserve" xmlns:serif="http://www.serif.com/" style="fill-rule:evenodd;clip-rule:evenodd;stroke-linejoin:round;stroke-miterlimit:2;">
    <g transform="matrix(1.33333,0,0,1.33333,0,0)">
        <g transform="matrix(1.02258,0,0,1.63273,-22.8596,-956.21)">
            <rect x="22.355" y="585.652" width="1001.39" height="401.782" style="fill:rgb(231,134,134);"/>
        </g>
        <g transform="matrix(0.986255,0,0,1.8627,-108.606,-371.384)">
            <rect x="146.621" y="396.942" width="73.003" height="154.614" style="fill:rgb(155,85,85);"/>
        </g>
        <g transform="matrix(0.986255,0,0,1.8627,35.3941,-371.384)">
            <rect x="146.621" y="396.942" width="73.003" height="154.614" style="fill:rgb(155,85,85);"/>
        </g>
        <g transform="matrix(0.986255,0,0,1.8627,179.394,-371.384)">
            <rect x="146.621" y="396.942" width="73.003" height="154.614" style="fill:rgb(155,85,85);"/>
        </g>
        <g transform="matrix(0.986255,0,0,1.8627,323.394,-371.384)">
            <rect x="146.621" y="396.942" width="73.003" height="154.614" style="fill:rgb(155,85,85);"/>
        </g>
        <g transform="matrix(0.986255,0,0,1.8627,467.394,-371.384)">
            <rect x="146.621" y="396.942" width="73.003" height="154.614" style="fill:rgb(155,85,85);"/>
        </g>
        <g transform="matrix(0.986255,0,0,1.8627,613.394,-371.384)">
            <rect x="146.621" y="396.942" width="73.003" height="154.614" style="fill:rgb(155,85,85);"/>
        </g>
        <g transform="matrix(0.986255,0,0,1.8627,757.394,-371.384)">
            <rect x="146.621" y="396.942" width="73.003" height="154.614" style="fill:rgb(155,85,85);"/>
        </g>
        <g transform="matrix(1.02258,0,0,0.915921,-22.8596,119.589)">
            <rect x="22.355" y="585.652" width="1001.39" height="401.782" style="fill:rgb(155,85,85);"/>
        </g>
    </g>
</svg>
